<svg width="24" height="24" viewBox="0 0 24 24" version="1.1" xmlns="http://www.w3.org/2000/svg" xmlns:xlink="http://www.w3.org/1999/xlink" xml:space="preserve" style="fill-rule:evenodd;clip-rule:evenodd;stroke-linejoin:round;stroke-miterlimit:2;">
    <g transform="matrix(0.0809171,0,0,0.0809171,-7.74376,-5.09305)">
        <path d="M95.7,276.6L120.8,319.9C125.7,329.7 135.9,336.4 147.6,336.4L313.9,336.4L279.4,276.6L95.7,276.6Z" style="fill-rule:nonzero;"/>
    </g>
    <g transform="matrix(0.0809171,0,0,0.0809171,-7.74376,-5.09305)">
        <path d="M392.3,276.9C392.3,270.9 390.5,265.3 387.5,260.7L290.1,91.2C285.1,81.7 275.1,75.3 263.6,75.3L212.1,75.3L362.6,336.1L386.3,295C391.1,287.1 392.3,283.7 392.3,276.9Z" style="fill-rule:nonzero;"/>
    </g>
    <g transform="matrix(0.0809171,0,0,0.0809171,-7.74376,-5.09305)">
        <path d="M254.8,234.1L187.5,117.5L120.2,234.1L254.8,234.1Z" style="fill-rule:nonzero;"/>
    </g>
</svg>
